# xmcd
#
# Track frame offsets:
#	150
#	21707
#	33891
#	48691
#	60374
#	69736
#	83711
#	100947
#	112464
#	132425
#
# Disc length: 1926 seconds
#
# Revision: 0
# Processed by: cddbd v1.5.2PL0 Copyright (c) Steve Scherf et al.
# Submitted via: dBpowerAMP V4.0
#
DISCID=9207840a
DTITLE=Various Artist - The Sweet Honey Mead
DYEAR=1900
DGENRE=Blues
TTITLE0=Dyslexis Blues
TTITLE1=Frustration Dream
TTITLE2=Low Maintenance Ford
TTITLE3=Mark Schlaefer - I-70 Blues
TTITLE4=Mark Schlaefer - Up the Road
TTITLE5=Dead End Street
TTITLE6=Cold Muddy Water
TTITLE7=Thursday Night in Frisco
TTITLE8=Sweet Honey Mead
TTITLE9=Trouble No More
EXTD=All Songs written, performed and recorded by Mark Schlaefer.\nBookings:\nDiane Harty Schlaefer\nPO Box 814\nFrisco, CO 80443\nmarkschlaefer@earthlink.net
EXTT0=
EXTT1=
EXTT2=
EXTT3=
EXTT4=
EXTT5=
EXTT6=
EXTT7=
EXTT8=
EXTT9=
PLAYORDER=
